<svg xmlns="http://www.w3.org/2000/svg" xmlns:xlink="http://www.w3.org/1999/xlink" width="82" height="82" viewBox="0 0 82 82"><defs><style>.a,.c{fill:#fff;}.a{stroke:#5259bd;}.b{fill:#30a0eb;}.d{fill:url(#c);}.e{fill:#d5f2ff;}.f{fill:#5edc10;stroke:#fff;}.g{stroke:none;}.h{fill:none;}.i{filter:url(#a);}</style><filter id="a" x="0" y="0" width="82" height="82" filterUnits="userSpaceOnUse"><feOffset dy="3" input="SourceAlpha"/><feGaussianBlur stdDeviation="3" result="b"/><feFlood flood-color="#86909f" flood-opacity="0.588"/><feComposite operator="in" in2="b"/><feComposite in="SourceGraphic"/></filter><linearGradient id="c" x1="0.5" y1="0.358" x2="0.5" y2="0.971" gradientUnits="objectBoundingBox"><stop offset="0" stop-color="#00aeff"/><stop offset="1" stop-color="#5259bd"/></linearGradient></defs><g transform="translate(-343 -267)"><g transform="translate(352 273)"><g class="i" transform="matrix(1, 0, 0, 1, -9, -6)"><g class="a" transform="translate(9 6)"><rect class="g" width="64" height="64" rx="32"/><rect class="h" x="0.5" y="0.5" width="63" height="63" rx="31.5"/></g></g><g transform="translate(0.968 0.977)"><g transform="translate(10 10)"><g transform="translate(0 0)"><circle class="b" cx="3.984" cy="3.984" r="3.984" transform="translate(0 26.321)"/><circle class="b" cx="3.984" cy="3.984" r="3.984" transform="translate(34.415 26.321)"/><path class="c" d="M25.385,42.766c-8.4,0-15.215-4.838-15.215-13.456V24.472A15.43,15.43,0,0,1,25.445,8.9h5.018c14.772-1.59,14.8-18.368,14.8-1.332V26.92h0v2.39c0,8.631-6.814,13.459-15.218,13.459Z" transform="translate(-6.54 0.011)"/><path class="d" d="M25.385,42.809c-8.4,0-15.215-4.9-15.215-13.507V24.529A15.43,15.43,0,0,1,25.448,8.946h5.015c14.772-1.587,14.8-18.322,14.8-1.329v19.3h0V29.3c0,8.6-6.814,13.507-15.218,13.507Z" transform="translate(-6.54 -0.033)"/><g transform="translate(5.824 18.147)"><path class="c" d="M26.764,63.62H37.729c5.315,0,9.624,4.954,9.624,11.065h0c0,6.111-4.309,11.065-9.624,11.065H26.764c-5.315,0-9.624-4.954-9.624-11.065h0C17.14,68.574,21.449,63.62,26.764,63.62Z" transform="translate(-16.846 -63.62)"/><circle class="b" cx="2.781" cy="2.781" r="2.781" transform="translate(7.419 8.395)"/><circle class="b" cx="2.781" cy="2.781" r="2.781" transform="translate(19.419 8.395)"/><path class="e" d="M20.481,83.833a10.837,10.837,0,0,1-3.03-3.891,12.608,12.608,0,0,1-.719-8.452,10.807,10.807,0,0,1,4.679-6.54,8.678,8.678,0,0,1,4.565-1.31H36.989a9.352,9.352,0,0,1,7.946,4.769,8.773,8.773,0,0,0-5.5-1.97H28.427c-5.311-.028-9.636,4.936-9.66,11.087a13.139,13.139,0,0,0,2.09,6.454Z" transform="translate(-16.315 -63.633)"/></g><path class="b" d="M61.312,112.854c-1.9,0-3.52-.939-3.862-2.235h7.724C64.832,111.916,63.208,112.854,61.312,112.854Z" transform="translate(-39.311 -75.696)"/><path class="b" d="M60.208,110.614A2.824,2.824,0,0,0,57.45,113.8h5.532A2.776,2.776,0,0,0,60.208,110.614Z" transform="translate(-32.085 -84.072)"/></g></g></g></g><g class="f" transform="translate(397 274)"><circle class="g" cx="4.5" cy="4.5" r="4.5"/><circle class="h" cx="4.5" cy="4.5" r="4"/></g></g></svg>